<?xml version="1.0" encoding="iso-8859-1"?>
<!-- Uploaded to: SVG Repo, www.svgrepo.com, Generator: SVG Repo Mixer Tools -->
<svg height="800px" width="800px" version="1.1" id="Layer_1" xmlns="http://www.w3.org/2000/svg" xmlns:xlink="http://www.w3.org/1999/xlink" 
	 viewBox="0 0 512 512" xml:space="preserve">
<g>
	<path style="fill:#FBD971;" d="M512,256c0,141.383-114.617,256-256,256S0,397.383,0,256S114.617,0,256,0S512,114.617,512,256"/>
	<g>
		<path style="fill:#FFFFFF;" d="M194.207,158.897c0,24.373-19.765,44.138-44.138,44.138c-24.373,0-44.138-19.765-44.138-44.138
			s19.765-44.138,44.138-44.138C174.442,114.759,194.207,134.524,194.207,158.897"/>
		<path style="fill:#FFFFFF;" d="M406.069,158.897c0,24.373-19.765,44.138-44.138,44.138c-24.373,0-44.138-19.765-44.138-44.138
			s19.765-44.138,44.138-44.138C386.304,114.759,406.069,134.524,406.069,158.897"/>
	</g>
	<path style="fill:#C03A2B;" d="M161.174,373.528c-24.691,6.091-45.171-18.538-34.957-41.816
		c21.839-49.779,71.565-84.542,129.404-84.542c58.871,0,109.339,36.034,130.551,87.243c9.181,22.175-11.264,45.383-34.595,39.724
		C308.515,363.685,238.901,354.345,161.174,373.528"/>
	<path style="fill:#4482C3;" d="M176.552,370.092v53.636c0,9.746,7.91,17.655,17.655,17.655s17.655-7.91,17.655-17.655v-17.655
		c0,9.746,7.91,17.655,17.655,17.655c9.746,0,17.655-7.91,17.655-17.655v-43.564C225.015,362.871,201.287,365.087,176.552,370.092"
		/>
	<g>
		<path d="M158.897,176.552c0,4.873-3.955,8.828-8.828,8.828c-4.873,0-8.828-3.955-8.828-8.828c0-4.873,3.955-8.828,8.828-8.828
			C154.942,167.724,158.897,171.679,158.897,176.552"/>
		<path d="M370.759,141.241c0,4.873-3.955,8.828-8.828,8.828c-4.873,0-8.828-3.955-8.828-8.828s3.955-8.828,8.828-8.828
			C366.804,132.414,370.759,136.369,370.759,141.241"/>
	</g>
</g>
</svg>